# xmcd
#
# Track frame offsets: 
#        150
#        12582
#        24052
#        37300
#        50200
#        60160
#        72545
#        85777
#        98647
#        109255
#        121840
#        133517
#        144632
#        155167
#
# Disc length: 2236 seconds
#
# Revision: 2
# Processed by: cddbd v1.5.2PL0 Copyright (c) Steve Scherf et al.
# Submitted via: ExactAudioCopy v1.3
#
DISCID=c208ba0e
DTITLE=The Temptations - Meet The Temptations
DYEAR=1999
DGENRE=Motown
TTITLE0=The Way You Do The Things You Do
TTITLE1=I Want A Love I Can See
TTITLE2=Dream Come True
TTITLE3=Paradise
TTITLE4=May I Have This Dance
TTITLE5=Isn't She Pretty
TTITLE6=Just Let Me Know
TTITLE7=Your Wonderful Love
TTITLE8=The Further You Look, The Less You See
TTITLE9=Check Yourself
TTITLE10=Slow Down Heart
TTITLE11=Farewell My Love
TTITLE12=Oh, Mother Of Mine
TTITLE13=Romance Without Finance
EXTD=
EXTT0=
EXTT1=
EXTT2=
EXTT3=
EXTT4=
EXTT5=
EXTT6=
EXTT7=
EXTT8=
EXTT9=
EXTT10=
EXTT11=
EXTT12=
EXTT13=
PLAYORDER=
